<?xml version="1.0" encoding="iso-8859-1"?>
<!-- Generator: Adobe Illustrator 19.0.0, SVG Export Plug-In . SVG Version: 6.00 Build 0)  -->
<svg xmlns="http://www.w3.org/2000/svg" xmlns:xlink="http://www.w3.org/1999/xlink" version="1.1" id="Layer_1" x="0px" y="0px" viewBox="0 0 512 512" style="enable-background:new 0 0 512 512;" xml:space="preserve" width="512px" height="512px">
<g>
	<g>
		<path d="M144.851,164.786c-0.145-0.712-0.356-1.414-0.634-2.081c-0.278-0.679-0.623-1.325-1.024-1.926    c-0.412-0.612-0.868-1.18-1.38-1.692c-0.523-0.512-1.091-0.979-1.703-1.38c-0.601-0.401-1.247-0.746-1.914-1.024    c-0.668-0.278-1.369-0.501-2.081-0.634c-1.436-0.289-2.916-0.289-4.352,0c-0.712,0.134-1.414,0.356-2.081,0.634    c-0.668,0.278-1.325,0.623-1.926,1.024c-0.612,0.401-1.18,0.868-1.692,1.38c-0.512,0.512-0.979,1.08-1.38,1.692    c-0.401,0.601-0.746,1.247-1.024,1.926c-0.278,0.668-0.49,1.369-0.634,2.081c-0.145,0.712-0.223,1.447-0.223,2.17    s0.078,1.458,0.223,2.17c0.145,0.712,0.356,1.414,0.634,2.081c0.278,0.679,0.623,1.325,1.024,1.926    c0.401,0.612,0.868,1.18,1.38,1.692c0.512,0.512,1.08,0.979,1.692,1.38c0.601,0.412,1.258,0.746,1.926,1.024    c0.668,0.278,1.369,0.501,2.081,0.646c0.712,0.134,1.447,0.211,2.17,0.211c0.735,0,1.458-0.078,2.182-0.211    c0.712-0.145,1.414-0.367,2.081-0.646c0.668-0.278,1.313-0.612,1.914-1.024c0.612-0.401,1.18-0.868,1.703-1.38    c0.512-0.512,0.968-1.08,1.38-1.692c0.401-0.601,0.746-1.247,1.024-1.926c0.278-0.668,0.49-1.369,0.634-2.081    s0.211-1.447,0.211-2.17S144.996,165.498,144.851,164.786z" fill="#91DC5A"/>
	</g>
</g>
<g>
	<g>
		<path d="M500.87,222.609h-33.391v-55.652c0-6.147-4.983-11.13-11.13-11.13H267.13v-24.175    c12.955-4.595,22.261-16.966,22.261-31.477c0-18.412-14.979-33.391-33.391-33.391c-18.412,0-33.391,14.979-33.391,33.391    c0,14.51,9.306,26.882,22.261,31.477v24.175h-77.171c-6.147,0-11.13,4.983-11.13,11.13s4.983,11.13,11.13,11.13h277.518v55.652    v133.565v55.652H66.783v-55.652V233.739v-55.652h33.391c6.147,0,11.13-4.983,11.13-11.13s-4.983-11.13-11.13-11.13H55.652    c-6.147,0-11.13,4.983-11.13,11.13v55.652H11.13c-6.147,0-11.13,4.983-11.13,11.13v133.565c0,6.147,4.983,11.13,11.13,11.13    h33.391v55.652c0,6.147,4.983,11.13,11.13,11.13h400.696c6.147,0,11.13-4.983,11.13-11.13v-55.652h33.391    c6.147,0,11.13-4.983,11.13-11.13V233.739C512,227.592,507.017,222.609,500.87,222.609z M256,111.304    c-6.137,0-11.13-4.993-11.13-11.13c0-6.137,4.993-11.13,11.13-11.13c6.137,0,11.13,4.993,11.13,11.13    C267.13,106.311,262.137,111.304,256,111.304z M44.522,356.174H22.261V244.87h22.261V356.174z M489.739,356.174h-22.261V244.87    h22.261V356.174z" fill="#91DC5A"/>
	</g>
</g>
<g>
	<g>
		<path d="M166.957,244.87c-18.412,0-33.391,14.979-33.391,33.391c0,18.412,14.979,33.391,33.391,33.391    c18.412,0,33.391-14.979,33.391-33.391C200.348,259.849,185.369,244.87,166.957,244.87z M166.957,289.391    c-6.137,0-11.13-4.993-11.13-11.13s4.993-11.13,11.13-11.13s11.13,4.993,11.13,11.13S173.094,289.391,166.957,289.391z" fill="#91DC5A"/>
	</g>
</g>
<g>
	<g>
		<path d="M345.043,244.87c-18.412,0-33.391,14.979-33.391,33.391c0,18.412,14.979,33.391,33.391,33.391    c18.412,0,33.391-14.979,33.391-33.391C378.435,259.849,363.455,244.87,345.043,244.87z M345.043,289.391    c-6.137,0-11.13-4.993-11.13-11.13s4.993-11.13,11.13-11.13s11.13,4.993,11.13,11.13S351.181,289.391,345.043,289.391z" fill="#91DC5A"/>
	</g>
</g>
<g>
	<g>
		<path d="M311.652,311.652H200.348c-6.147,0-11.13,4.983-11.13,11.13c0,36.824,29.959,66.783,66.783,66.783    s66.783-29.959,66.783-66.783C322.783,316.635,317.799,311.652,311.652,311.652z M256,367.304    c-20.707,0-38.158-14.21-43.113-33.391h86.226C294.158,353.094,276.707,367.304,256,367.304z" fill="#91DC5A"/>
	</g>
</g>
<g>
</g>
<g>
</g>
<g>
</g>
<g>
</g>
<g>
</g>
<g>
</g>
<g>
</g>
<g>
</g>
<g>
</g>
<g>
</g>
<g>
</g>
<g>
</g>
<g>
</g>
<g>
</g>
<g>
</g>
</svg>
